<svg xmlns="http://www.w3.org/2000/svg" xmlns:xlink="http://www.w3.org/1999/xlink" viewBox="0 0 228.72 98.22"><defs><style>.cls-1{isolation:isolate;}.cls-2{fill:#0d8bd1;}.cls-3{fill:url(#linear-gradient);}.cls-4{fill:url(#linear-gradient-2);}.cls-5{fill:url(#linear-gradient-5);}.cls-6{fill:url(#linear-gradient-6);}.cls-7{mix-blend-mode:multiply;}.cls-8{fill:url(#linear-gradient-7);}.cls-9{fill:url(#linear-gradient-8);}</style><linearGradient id="linear-gradient" x1="64.28" y1="38.96" x2="214.56" y2="38.96" gradientUnits="userSpaceOnUse"><stop offset="0" stop-color="#39b54a"/><stop offset="0.08" stop-color="#2cb36f"/><stop offset="0.21" stop-color="#19b1a6"/><stop offset="0.32" stop-color="#0cafce"/><stop offset="0.41" stop-color="#03aee6"/><stop offset="0.46" stop-color="#00aeef"/><stop offset="1" stop-color="#1c75bc"/></linearGradient><linearGradient id="linear-gradient-2" x1="64.28" y1="29.21" x2="214.56" y2="29.21" xlink:href="#linear-gradient"/><linearGradient id="linear-gradient-5" x1="64.28" y1="39.07" x2="214.56" y2="39.07" xlink:href="#linear-gradient"/><linearGradient id="linear-gradient-6" x1="99.17" y1="39.79" x2="0.38" y2="39.79" gradientUnits="userSpaceOnUse"><stop offset="0.1" stop-color="#39b54a"/><stop offset="0.16" stop-color="#2cb36f"/><stop offset="0.26" stop-color="#19b1a6"/><stop offset="0.35" stop-color="#0cafce"/><stop offset="0.42" stop-color="#03aee6"/><stop offset="0.46" stop-color="#00aeef"/><stop offset="0.71" stop-color="#1c75bc"/></linearGradient><linearGradient id="linear-gradient-7" x1="-4362.55" y1="-2374.66" x2="-4487.4" y2="-2374.66" gradientTransform="matrix(0.89, -0.32, 0.33, 0.94, 4770.08, 859.8)" gradientUnits="userSpaceOnUse"><stop offset="0" stop-color="#ee2a7b"/><stop offset="0.16" stop-color="#f7941e"/><stop offset="0.33" stop-color="#f9ed32"/><stop offset="0.51" stop-color="#39b54a"/><stop offset="0.68" stop-color="#00aeef"/><stop offset="0.83" stop-color="#1c75bc"/><stop offset="1" stop-color="#662d91"/></linearGradient><linearGradient id="linear-gradient-8" x1="-4311.3" y1="-2367.01" x2="-4509.17" y2="-2367.01" xlink:href="#linear-gradient-7"/></defs><title>Logo_fellow</title><g class="cls-1"><g id="Layer_1" data-name="Layer 1"><path class="cls-2" d="M95.05,99.89V72a8.68,8.68,0,0,1,2.62-6.28A8.38,8.38,0,0,1,103.85,63h0.84a1.07,1.07,0,0,1,.82.35,1.19,1.19,0,0,1,.32.84,1,1,0,0,1-.32.79,1.16,1.16,0,0,1-.82.3h-0.64a6.19,6.19,0,0,0-4.65,2,6.63,6.63,0,0,0-1.93,4.62v5.69h7.32a1,1,0,0,1,.74.32,1,1,0,0,1,.3.72,1.09,1.09,0,0,1-.3.77,1,1,0,0,1-.74.32H97.47V99.89a0.91,0.91,0,0,1-.37.74,1.42,1.42,0,0,1-.92.3A1,1,0,0,1,95.05,99.89Z" transform="translate(-2 -3.01)"/><path class="cls-2" d="M107.86,92.08V86.19a8.49,8.49,0,0,1,2.67-6.28A8.85,8.85,0,0,1,117,77.29a8.75,8.75,0,0,1,6.3,2.57,8.53,8.53,0,0,1,2.66,6.38,6,6,0,0,1-.32,2.15,2.09,2.09,0,0,1-1,1.16,4,4,0,0,1-1.26.42,13.15,13.15,0,0,1-1.6.07H110.28v2.08a6.21,6.21,0,0,0,2.23,5A8.58,8.58,0,0,0,118.25,99a8.11,8.11,0,0,0,3-.5,8,8,0,0,0,1.88-1,1.93,1.93,0,0,1,1-.5,1,1,0,0,1,.78.4,1.22,1.22,0,0,1,.34.79q0,0.94-2,2a11.06,11.06,0,0,1-5,1,10.82,10.82,0,0,1-7.42-2.52A8.4,8.4,0,0,1,107.86,92.08ZM110.28,88h10.53a4.71,4.71,0,0,0,2.23-.35,1.59,1.59,0,0,0,.54-1.43,6.82,6.82,0,0,0-1.88-4.7A6.13,6.13,0,0,0,117,79.47a6.47,6.47,0,0,0-4.72,1.93,6.24,6.24,0,0,0-2,4.6v2Z" transform="translate(-2 -3.01)"/><path class="cls-2" d="M129.42,94.7a5.27,5.27,0,0,1,2.94-5.17q2.94-1.46,8.58-1.46h2.67V86.79a8.49,8.49,0,0,0-1.56-5.12,5.39,5.39,0,0,0-4.67-2.15,8.9,8.9,0,0,0-3.51.69q-1.63.69-1.68,0.69a0.91,0.91,0,0,1-.79-0.44,1.6,1.6,0,0,1-.3-0.89q0-.84,2.05-1.56a13.05,13.05,0,0,1,4.33-.72q4.4,0,6.48,2.7a10.81,10.81,0,0,1,2.08,6.8V99.84a1,1,0,0,1-.35.77,1.26,1.26,0,0,1-1.68,0,1,1,0,0,1-.35-0.77V97.47a9.65,9.65,0,0,1-7.42,3.76,7.22,7.22,0,0,1-4.92-1.66A6.11,6.11,0,0,1,129.42,94.7Zm2.42-.1a4.13,4.13,0,0,0,1.31,3.34,5.12,5.12,0,0,0,3.44,1.11,7.51,7.51,0,0,0,4.77-1.81q2.25-1.81,2.25-3.54V90h-2.42a35.52,35.52,0,0,0-3.56.15,16.08,16.08,0,0,0-2.87.57,4.09,4.09,0,0,0-2.18,1.38A3.9,3.9,0,0,0,131.84,94.6Z" transform="translate(-2 -3.01)"/><path class="cls-2" d="M152.27,93.86V67.3a0.91,0.91,0,0,1,.37-0.74,1.27,1.27,0,0,1,.82-0.3,1.35,1.35,0,0,1,.87.3,0.91,0.91,0,0,1,.37.74V77.59h6.58a0.84,0.84,0,0,1,.67.32,1.15,1.15,0,0,1,.27.77,1,1,0,0,1-.3.72,0.87,0.87,0,0,1-.64.32h-6.58V93.86a5,5,0,0,0,1.14,3.71q1.14,1.09,4,1.09H161a1.1,1.1,0,0,1,1.14,1.14,1.13,1.13,0,0,1-.32.79,1.07,1.07,0,0,1-.82.35h-1.24Q152.27,100.93,152.27,93.86Z" transform="translate(-2 -3.01)"/><path class="cls-2" d="M166.41,99.84V64.08a0.94,0.94,0,0,1,.35-0.74,1.25,1.25,0,0,1,.84-0.3,1.32,1.32,0,0,1,.89.3,0.94,0.94,0,0,1,.35.74V81a7.16,7.16,0,0,1,2.55-2.67,7.34,7.34,0,0,1,4-1.09A8.44,8.44,0,0,1,181.65,80a8.79,8.79,0,0,1,2.62,6.38v13.5a1,1,0,0,1-1.24,1.09,1,1,0,0,1-1.19-1.09V86.34a6.64,6.64,0,0,0-2-4.7,6.25,6.25,0,0,0-9.1-.22,6.51,6.51,0,0,0-1.93,4.92v13.5a1,1,0,0,1-.37.74,1.23,1.23,0,0,1-.87.35,1.19,1.19,0,0,1-.84-0.32A1,1,0,0,1,166.41,99.84Z" transform="translate(-2 -3.01)"/><path class="cls-2" d="M189.66,92.08V86.19a8.49,8.49,0,0,1,2.67-6.28,8.85,8.85,0,0,1,6.43-2.62,8.75,8.75,0,0,1,6.3,2.57,8.53,8.53,0,0,1,2.66,6.38,6,6,0,0,1-.32,2.15,2.09,2.09,0,0,1-1,1.16,4,4,0,0,1-1.26.42,13.15,13.15,0,0,1-1.6.07H192.08v2.08a6.21,6.21,0,0,0,2.23,5A8.58,8.58,0,0,0,200,99a8.11,8.11,0,0,0,3-.5,8,8,0,0,0,1.88-1,1.93,1.93,0,0,1,1-.5,1,1,0,0,1,.78.4,1.22,1.22,0,0,1,.34.79q0,0.94-2,2a11.06,11.06,0,0,1-5,1,10.82,10.82,0,0,1-7.42-2.52A8.4,8.4,0,0,1,189.66,92.08ZM192.08,88h10.53a4.71,4.71,0,0,0,2.23-.35,1.59,1.59,0,0,0,.54-1.43,6.82,6.82,0,0,0-1.88-4.7,6.13,6.13,0,0,0-4.75-2.08A6.47,6.47,0,0,0,194,81.39a6.24,6.24,0,0,0-2,4.6v2Z" transform="translate(-2 -3.01)"/><path class="cls-2" d="M212.85,99.84V78.58a1,1,0,0,1,1.19-1,1.33,1.33,0,0,1,.84.27,0.87,0.87,0,0,1,.35.72V81.1a7.33,7.33,0,0,1,2.65-2.72A7.59,7.59,0,0,1,222,77.29h1.78a1,1,0,0,1,.77.32,1.19,1.19,0,0,1,0,1.63,1,1,0,0,1-.77.32H222a6.4,6.4,0,0,0-4.67,2,7.06,7.06,0,0,0-2,5.22V99.84a1,1,0,0,1-.37.74,1.23,1.23,0,0,1-.87.35,1.19,1.19,0,0,1-.84-0.32A1,1,0,0,1,212.85,99.84Z" transform="translate(-2 -3.01)"/><path class="cls-3" d="M111.92,35c0,5.92-3.35,6.2-6.48,6.2H91.29v1c0,4,3.28,6.69,8.15,6.69,4.6,0,6.48-2.65,8.57-2.65s3.41,2.58,3.41,4c0,2.37-4.81,5.78-12.26,5.78C89.27,56,82.3,50.32,82.3,41.75V35.83c0-7.53,6.76-13.94,15.26-13.94C105.23,21.89,111.92,27.26,111.92,35Zm-10.45.91c1.46,0,2-.35,2-1.88,0-3.27-2.79-5.5-6.13-5.5-3.14,0-6.06,2.09-6.06,5.43v2h10.17Z" transform="translate(-2 -3.01)"/><path class="cls-4" d="M126.9,5.8V52.55c0,1.39-2.09,2.86-4.53,2.86-2.65,0-4.46-1.46-4.46-2.86V5.8c0-1.67,1.81-2.79,4.46-2.79C124.81,3,126.9,4.12,126.9,5.8Z" transform="translate(-2 -3.01)"/><path class="cls-4" d="M144.11,5.8V52.55c0,1.39-2.09,2.86-4.53,2.86-2.65,0-4.46-1.46-4.46-2.86V5.8c0-1.67,1.81-2.79,4.46-2.79C142,3,144.11,4.12,144.11,5.8Z" transform="translate(-2 -3.01)"/><path class="cls-3" d="M180.69,36v5.71c0,7.46-7,14.28-15.12,14.28s-15.12-6.76-15.12-14.28V36c0-7.52,6.83-14.14,15.12-14.14C173.65,21.89,180.69,28.3,180.69,36Zm-9,0a6.13,6.13,0,1,0-12.26,0v5.71a6.14,6.14,0,1,0,12.26,0V36Z" transform="translate(-2 -3.01)"/><path class="cls-5" d="M219.71,54.57c-0.49,1.19-2,1.6-3.55,1.6-1.74,0-3.27-.56-3.69-1.6L207.1,39.38,201.8,54.5c-0.42,1.11-2.09,1.67-3.83,1.67-1.46,0-3-.42-3.48-1.67L183.75,27a2.87,2.87,0,0,1-.35-1.32c0-2.16,3.48-3.69,5.85-3.69a2.55,2.55,0,0,1,2.58,1.46l7,19.79L204,26c0.49-1.6,1.67-1.81,3.07-1.81s2.58,0.21,3.07,1.81l5.16,17.28,7-19.86A2.59,2.59,0,0,1,224.93,22c2.23,0,5.78,1.53,5.78,3.76a2.55,2.55,0,0,1-.28,1.25Z" transform="translate(-2 -3.01)"/><path class="cls-6" d="M78.12,22.31h-8.5V15.69a4.84,4.84,0,0,1,5.16-5.09H77c2.3,0,3.41-1.88,3.41-3.83S79.3,3,77,3H72.89C66.21,3,60.63,8.86,60.63,16.67V44.07a64.73,64.73,0,0,1-12.76,9.55c-6.8,4-12.72,7.48-11.68,13.1,0.3,5.39,12.2,12.1,21.13,9.1,8.86-2.35,10.93-11.22,11.85-18.2,0.17-1.5.25-2.93,0.3-4.29a1.87,1.87,0,0,0,.15-0.71V28.86h8.5c1.46,0,2.3-1.6,2.3-3.28S79.58,22.31,78.12,22.31Z" transform="translate(-2 -3.01)"/><g class="cls-7"><path class="cls-8" d="M24.71,55.54c-8.32-.28-15.45-0.79-19.76,2C0.73,59.86.33,67.34,8.46,72.43c7.59,5.35,21.83,4.35,30.69-.41,9.29-4.65,14.21-10.91,15.77-14.71,1.68-4,2-7.25,4.59-10.92,2.27-3.41,5.66-7.36,5.1-6.71A42.7,42.7,0,0,1,52.1,49.83C44.19,54.45,32.87,56,24.71,55.54Z" transform="translate(-2 -3.01)"/></g><g class="cls-7"><path class="cls-9" d="M29.57,66.38c-3,1.56-3,4.45-.43,8s8.49,7.28,13.75,7c5.27,0,9.54-3.84,12.53-7.6s3.44-7.66,4.08-9.85c1.09-3.75,5-18.82,5.62-21.39,1.86-7.61-11.72,10-12.87,11-1.89,1.61-3.89,4.71-8.83,7.13C38.58,63.24,32.41,64.78,29.57,66.38Z" transform="translate(-2 -3.01)"/></g></g></g></svg>